
g
v 0.1899332 -0.0007245507 -8.697525E-08
v 0.1644866 -0.0007245507 0.09496778
v -2.689264E-08 -0.0007245433 -8.697525E-08
v 0.09496659 -0.0007245507 0.1644891
v -1.557215E-08 -0.0007245433 0.1899356
v -0.09496673 -0.0007245433 0.1644891
v -0.1644869 -0.0007245433 0.09496778
v -0.1899334 -0.0007245433 -1.035799E-07
v -0.1644869 -0.0007245433 -0.09496807
v -0.09496672 -0.0007245433 -0.1644895
v -1.557215E-08 -0.0007245433 -0.189936
v 0.09496656 -0.0007245507 -0.1644895
v 0.1644867 -0.0007245507 -0.09496804
v 0.06982195 0.1387015 -1.13375E-07
v 0.06046801 0.1387015 0.03491155
v 0.03491097 0.1387015 0.06046861
v -5.504757E-08 0.1408659 0.06982316
v -0.03491103 0.1408659 0.06046861
v -0.06046817 0.1408659 0.03491156
v -0.06982203 0.1408659 -1.194791E-07
v -0.06046817 0.1408659 -0.03491172
v -0.03491102 0.1408659 -0.06046881
v -5.504757E-08 0.1408659 -0.06982331
v 0.03491095 0.1408659 -0.06046881
v 0.06046805 0.1408659 -0.0349117
v -0.06056817 0.103242 -0.03491172
v -0.06992203 0.103242 -1.194791E-07
v -0.06056817 0.103242 0.03491156
v -0.03501102 0.103242 0.06046861
v -0.0001000525 0.103242 0.06982316
v 0.03481097 0.1010775 0.06046861
v 0.06036801 0.1010775 0.03491155
v 0.06972194 0.1010775 -1.13375E-07
v 0.06036805 0.103242 -0.0349117
v 0.03481095 0.103242 -0.06046881
v -0.0001000525 0.103242 -0.06982331
v -0.03501102 0.103242 -0.06046881
vt 0.4249999 0.2965685
vt 0.4999999 0.3166647
vt 0.4999999 0.1666668
vt 0.4999999 0.1666668
vt 0.3700961 0.2416657
vt 0.4249999 0.2965685
vt 0.4999999 0.1666668
vt 0.35 0.1666668
vt 0.3700961 0.2416657
vt 0.4999999 0.1666668
vt 0.3700961 0.0916677
vt 0.35 0.1666668
vt 0.4999999 0.1666668
vt 0.4249999 0.03676476
vt 0.3700961 0.0916677
vt 0.4999999 0.01666866
vt 0.4249999 0.03676476
vt 0.4999999 0.1666668
vt 0.5749999 0.03676476
vt 0.4999999 0.01666866
vt 0.4999999 0.1666668
vt 0.4999999 0.1666668
vt 0.6299038 0.09166771
vt 0.5749999 0.03676476
vt 0.4999999 0.1666668
vt 0.65 0.1666668
vt 0.6299038 0.09166771
vt 0.4999999 0.1666668
vt 0.6299038 0.2416657
vt 0.65 0.1666668
vt 0.4999999 0.1666668
vt 0.5749999 0.2965685
vt 0.6299038 0.2416657
vt 0.4999999 0.3166647
vt 0.5749999 0.2965685
vt 0.4999999 0.1666668
vt 0.1666665 0.1021076
vt 0.08006408 0.1021076
vt 0.1348302 0.229252
vt 0.1666666 0.229252
vt 0.1666665 0.1021076
vt 0.1348302 0.229252
vt 0.08006408 0.1021076
vt 0.01666668 0.1021076
vt 0.1115243 0.229252
vt 0.1348302 0.229252
vt 0.08006408 0.1021076
vt 0.1115243 0.229252
vt 0.3700961 0.425001
vt 0.35 0.5
vt 0.4448577 0.5
vt 0.4448577 0.5
vt 0.4522453 0.4724294
vt 0.3700961 0.425001
vt 0.35 0.5
vt 0.3700961 0.574999
vt 0.4522453 0.5275706
vt 0.4448577 0.5
vt 0.35 0.5
vt 0.4522453 0.5275706
vt 0.3166667 0.4354409
vt 0.2532693 0.4354409
vt 0.1985032 0.5645591
vt 0.221809 0.5645591
vt 0.3166667 0.4354409
vt 0.1985032 0.5645591
vt 0.2532693 0.4354409
vt 0.1666668 0.4354409
vt 0.1666667 0.5645591
vt 0.1985032 0.5645591
vt 0.2532693 0.4354409
vt 0.1666667 0.5645591
vt 0.1666668 0.4354409
vt 0.08006418 0.4354409
vt 0.1348304 0.5645591
vt 0.1666667 0.5645591
vt 0.1666668 0.4354409
vt 0.1348304 0.5645591
vt 0.08006418 0.4354409
vt 0.01666667 0.4354409
vt 0.1115245 0.5645591
vt 0.1348304 0.5645591
vt 0.08006418 0.4354409
vt 0.1115245 0.5645591
vt 0.6299038 0.574999
vt 0.65 0.5
vt 0.5551421 0.5
vt 0.5477545 0.5275706
vt 0.6299038 0.574999
vt 0.5551421 0.5
vt 0.65 0.5
vt 0.6299038 0.425001
vt 0.5477545 0.4724294
vt 0.5551421 0.5
vt 0.65 0.5
vt 0.5477545 0.4724294
vt 0.3166667 0.1021076
vt 0.2532691 0.1021076
vt 0.1985029 0.2312258
vt 0.2218088 0.2312258
vt 0.3166667 0.1021076
vt 0.1985029 0.2312258
vt 0.2532691 0.1021076
vt 0.1666665 0.1021076
vt 0.1666666 0.229252
vt 0.1985029 0.2312258
vt 0.2532691 0.1021076
vt 0.1666666 0.229252
vt 0.4522453 0.5276496
vt 0.4724287 0.5478331
vt 0.4999999 0.5552202
vt 0.4448577 0.500079
vt 0.4522453 0.5276496
vt 0.4999999 0.5552202
vt 0.4522453 0.4725084
vt 0.4448577 0.500079
vt 0.4999999 0.5552202
vt 0.4724288 0.4523249
vt 0.4522453 0.4725084
vt 0.4999999 0.5552202
vt 0.4999999 0.4449377
vt 0.4724288 0.4523249
vt 0.4999999 0.5552202
vt 0.527571 0.4523249
vt 0.4999999 0.4449377
vt 0.4999999 0.5552202
vt 0.5477545 0.4725084
vt 0.527571 0.4523249
vt 0.4999999 0.5552202
vt 0.5551421 0.500079
vt 0.5477545 0.4725084
vt 0.4999999 0.5552202
vt 0.5477545 0.5276496
vt 0.5551421 0.500079
vt 0.4999999 0.5552202
vt 0.5275711 0.5478331
vt 0.5477545 0.5276496
vt 0.4999999 0.5552202
vt 0.1666666 0.2312258
vt 0.1985029 0.2312258
vt 0.1985029 0.196916
vt 0.1666666 0.196916
vt 0.1666666 0.2312258
vt 0.1985029 0.196916
vt 0.1666666 0.2312258
vt 0.1666666 0.196916
vt 0.1348302 0.196916
vt 0.1348302 0.2312258
vt 0.1666666 0.2312258
vt 0.1348302 0.196916
vt 0.1348302 0.2312258
vt 0.1348302 0.196916
vt 0.1115243 0.196916
vt 0.1115243 0.2312258
vt 0.1348302 0.2312258
vt 0.1115243 0.196916
vt 0.3162378 0.9186893
vt 0.3166667 0.7572639
vt 0.1668815 0.7572639
vt 0.1664524 0.9186893
vt 0.3162378 0.9186893
vt 0.1668815 0.7572639
vt 0.1668815 0.7572639
vt 0.0170958 0.7479774
vt 0.01666665 0.9094028
vt 0.01666665 0.9094028
vt 0.1664524 0.9186893
vt 0.1668815 0.7572639
vt 0.221809 0.5625854
vt 0.221809 0.5282756
vt 0.1985032 0.5282755
vt 0.1985032 0.5625854
vt 0.221809 0.5625854
vt 0.1985032 0.5282755
vt 0.1985032 0.5625854
vt 0.1985032 0.5282755
vt 0.1666667 0.5282755
vt 0.1666667 0.5625854
vt 0.1985032 0.5625854
vt 0.1666667 0.5282755
vt 0.1348304 0.5302494
vt 0.1348304 0.5645591
vt 0.1666667 0.5625854
vt 0.1666667 0.5282755
vt 0.1348304 0.5302494
vt 0.1666667 0.5625854
vt 0.1115245 0.5645591
vt 0.1348304 0.5645591
vt 0.1348304 0.5302494
vt 0.1115245 0.5302494
vt 0.1115245 0.5645591
vt 0.1348304 0.5302494
vt 0.5002143 0.914046
vt 0.65 0.914046
vt 0.6495709 0.7526208
vt 0.4997854 0.7526208
vt 0.5002143 0.914046
vt 0.6495709 0.7526208
vt 0.350429 0.914046
vt 0.5002143 0.914046
vt 0.4997854 0.7526208
vt 0.35 0.7526208
vt 0.350429 0.914046
vt 0.4997854 0.7526208
vt 0.1985029 0.2312258
vt 0.2218088 0.2312258
vt 0.2218088 0.196916
vt 0.1985029 0.196916
vt 0.1985029 0.2312258
vt 0.2218088 0.196916
g name0
f 1/2 2/1 3/3
f 2/6 4/5 3/4
f 4/9 5/8 3/7
f 5/12 6/11 3/10
f 6/15 7/14 3/13
f 7/17 8/16 3/18
f 8/20 9/19 3/21
f 9/24 10/23 3/22
f 10/27 11/26 3/25
f 11/30 12/29 3/28
f 12/33 13/32 3/31
f 13/35 1/34 3/36
f 14/40 15/39 2/38 1/37
f 15/46 16/45 4/44 2/43
f 16/53 17/51 5/50 4/49
f 17/58 18/57 6/56 5/55
f 18/64 19/63 7/62 6/61
f 19/70 20/69 8/68 7/67
f 20/76 21/75 9/74 8/73
f 21/82 22/81 10/80 9/79
f 22/88 23/87 11/86 10/85
f 23/94 24/93 12/92 11/91
f 24/100 25/99 13/98 12/97
f 25/106 14/105 1/104 13/103
f 26/136 27/111 28/110 29/109 30/112 31/115 32/118 33/121 34/124 35/127 36/130 37/133
f 27/142 26/141 21/140 20/139
f 28/147 27/146 20/145 19/148
f 29/153 28/152 19/151 18/154
f 30/159 29/158 18/157 17/160
f 31/164 30/163 17/167 16/165
f 32/171 31/170 16/169 15/172
f 33/177 32/176 15/175 14/178
f 34/181 33/184 14/183 25/182
f 35/190 34/189 25/188 24/187
f 36/196 35/195 24/194 23/193
f 37/202 36/201 23/200 22/199
f 26/208 37/207 22/206 21/205
