
g
v -0.1635029 -0.04996968 -0.03236551
v 0.1621028 -0.04997206 -0.0323661
v -0.163503 -0.04744149 0.1124959
v 0.1621027 -0.04744292 0.1124959
v -0.03180454 4.92113 -0.08078671
v -0.002312104 4.921612 -0.0761064
v -0.02072876 4.875824 -0.07748374
v 0.01050175 4.892698 -0.06675909
vt 0.1498975 0.9749998
vt 0.3501025 0.975
vt 0.3501016 0.5250002
vt 0.1498975 0.525
vt 0.1498975 0.9749998
vt 0.3501016 0.5250002
vt 0.749854 0.475
vt 0.7647434 0.02500001
vt 0.7352566 0.02500015
vt 0.7471832 0.4749563
vt 0.749854 0.475
vt 0.7352566 0.02500015
vt 0.7489861 0.9723828
vt 0.7501459 0.975
vt 0.7528154 0.9749564
vt 0.7518129 0.9708555
vt 0.7489861 0.9723828
vt 0.7528154 0.9749564
vt 0.735264 0.525
vt 0.7489861 0.9723828
vt 0.7518129 0.9708555
vt 0.764736 0.5250002
vt 0.735264 0.525
vt 0.7518129 0.9708555
vt 0.2587474 0.02522905
vt 0.2456354 0.02500021
vt 0.2415515 0.4708555
vt 0.2412526 0.4749564
vt 0.2587474 0.02522905
vt 0.2415515 0.4708555
vt 0.2416762 0.475
vt 0.2425223 0.4723828
vt 0.2456353 0.02500001
vt 0.2587474 0.02522892
vt 0.2416762 0.475
vt 0.2456353 0.02500001
g name0
f 1/3 2/2 4/1 3/4
f 3/9 4/8 6/7 5/10
f 5/15 6/14 8/13 7/16
f 7/21 8/20 2/19 1/22
f 7/27 1/26 3/25 5/28
f 2/33 8/32 6/31 4/34
