
g
v 0.4570248 2.030066 0.002180298
v 0.3958755 2.030066 -0.2260327
v 0.2288123 2.030066 -0.3930969
v 0.0005994688 2.030066 -0.4542464
v -0.2276132 2.030066 -0.3930969
v -0.3946765 2.030066 -0.2308945
v -0.4558263 2.030066 -0.002681198
v -0.3946765 2.030066 0.2255317
v -0.227613 2.030066 0.3925959
v 0.0005994688 2.030066 0.4586071
v 0.2288122 2.030066 0.3974579
v 0.3958755 2.030066 0.2303934
v 0.0005994433 0.3969846 -0.002681301
v 0.0005992774 2.606654 0.002180456
vt 0.1976505 0.238385
vt 0.1673268 0.01666667
vt 0.1666667 0.2383851
vt 0.2203323 0.238385
vt 0.1673268 0.01666667
vt 0.1976505 0.238385
vt 0.5 0.3166667
vt 0.5 0.01666667
vt 0.4580769 0.3166667
vt 0.5419232 0.3166667
vt 0.5 0.01666667
vt 0.5 0.3166667
vt 0.1353529 0.5717183
vt 0.1663366 0.35
vt 0.1133311 0.5717183
vt 0.1663367 0.5717185
vt 0.1663366 0.35
vt 0.1353529 0.5717183
vt 0.1973204 0.5717185
vt 0.1663366 0.35
vt 0.1663367 0.5717185
vt 0.2200022 0.5717183
vt 0.1663366 0.35
vt 0.1973204 0.5717185
vt 0.1666667 0.9833334
vt 0.1666667 0.6833333
vt 0.1247436 0.9833334
vt 0.2085898 0.9833334
vt 0.1666667 0.6833333
vt 0.1666667 0.9833334
vt 0.1356829 0.238385
vt 0.1673268 0.01666667
vt 0.1130011 0.238385
vt 0.1666667 0.2383851
vt 0.1673268 0.01666667
vt 0.1356829 0.238385
vt 0.1976505 0.238385
vt 0.1666667 0.2383851
vt 0.1666667 0.3166667
vt 0.2203323 0.238385
vt 0.1976505 0.238385
vt 0.1666667 0.3166667
vt 0.65 0.5000001
vt 0.6299039 0.4250002
vt 0.5 0.5000001
vt 0.6299039 0.5749998
vt 0.65 0.5000001
vt 0.5 0.5000001
vt 0.1353529 0.5717183
vt 0.1133311 0.5717183
vt 0.1669967 0.65
vt 0.1663367 0.5717185
vt 0.1353529 0.5717183
vt 0.1669967 0.65
vt 0.1973204 0.5717185
vt 0.1663367 0.5717185
vt 0.1669967 0.65
vt 0.2200022 0.5717183
vt 0.1973204 0.5717185
vt 0.1669967 0.65
vt 0.35 0.5000001
vt 0.3716939 0.5749997
vt 0.5 0.5000001
vt 0.3700961 0.4250002
vt 0.35 0.5000001
vt 0.5 0.5000001
vt 0.1356829 0.238385
vt 0.1130011 0.238385
vt 0.1666667 0.3166667
vt 0.1666667 0.2383851
vt 0.1356829 0.238385
vt 0.1666667 0.3166667
g name0
f 13/2 2/1 1/3
f 13/5 3/4 2/6
f 13/8 4/7 3/9
f 13/11 5/10 4/12
f 13/14 6/13 5/15
f 13/17 7/16 6/18
f 13/20 8/19 7/21
f 13/23 9/22 8/24
f 13/26 10/25 9/27
f 13/29 11/28 10/30
f 13/32 12/31 11/33
f 13/35 1/34 12/36
f 14/39 1/38 2/37
f 14/42 2/41 3/40
f 14/45 3/44 4/43
f 14/48 4/47 5/46
f 14/51 5/50 6/49
f 14/54 6/53 7/52
f 14/57 7/56 8/55
f 14/60 8/59 9/58
f 14/63 9/62 10/61
f 14/66 10/65 11/64
f 14/69 11/68 12/67
f 14/72 12/71 1/70
